HIERARCHY
ROOT Hips
{
	OFFSET 0.00000 0.00000 0.00000
	CHANNELS 6 Xposition Yposition Zposition Zrotation Yrotation Xrotation 
	JOINT LHipJoint
	{
		OFFSET 0 0 0
		CHANNELS 3 Zrotation Yrotation Xrotation
		JOINT LeftHip
		{
			OFFSET 1.26600 -1.82114 0.91038
			CHANNELS 3 Zrotation Yrotation Xrotation
			JOINT LeftKnee
			{
				OFFSET 2.50076 -6.87080 0.00000
				CHANNELS 3 Zrotation Yrotation Xrotation
				JOINT LeftAnkle
				{
					OFFSET 2.57364 -7.07102 0.00000
					CHANNELS 3 Zrotation Yrotation Xrotation
					JOINT LeftToe
					{
						OFFSET 0.13572 -0.37290 1.97004
						CHANNELS 3 Zrotation Yrotation Xrotation
						End Site
						{
							OFFSET 0.00000 -0.00000 1.01383
						}
					}
				}
			}
		}
	}
	JOINT RHipJoint
	{
		OFFSET 0 0 0
		CHANNELS 3 Zrotation Yrotation Xrotation
		JOINT RightHip
		{
			OFFSET -1.20803 -1.82114 0.91038
			CHANNELS 3 Zrotation Yrotation Xrotation
			JOINT RightKnee
			{
				OFFSET -2.54916 -7.00377 0.00000
				CHANNELS 3 Zrotation Yrotation Xrotation
				JOINT RightAnkle
				{
					OFFSET -2.56374 -7.04382 0.00000
					CHANNELS 3 Zrotation Yrotation Xrotation
					JOINT RightToe
					{
						OFFSET -0.23520 -0.64621 2.09921
						CHANNELS 3 Zrotation Yrotation Xrotation
						End Site
						{
							OFFSET -0.00000 -0.00000 1.10065
						}
					}
				}
			}
		}
	}
	JOINT lowerback
	{
		OFFSET 0 0 0
		CHANNELS 3 Zrotation Yrotation Xrotation
		JOINT Chest
		{
			OFFSET 0.05492 2.10797 -0.12074
			CHANNELS 3 Zrotation Yrotation Xrotation
			JOINT Chest2
			{
				OFFSET 0.04577 2.11592 -0.04483
				CHANNELS 3 Zrotation Yrotation Xrotation
				JOINT lowerneck
				{
					OFFSET 0 0 0
					CHANNELS 3 Zrotation Yrotation Xrotation
					JOINT Neck
					{
						OFFSET -0.10759 1.80167 0.15770
						CHANNELS 3 Zrotation Yrotation Xrotation
						JOINT Head
						{
							OFFSET 0.09237 1.77509 -0.40848
							CHANNELS 3 Zrotation Yrotation Xrotation
							End Site
							{
								OFFSET 0.03805 1.84093 -0.15754
							}
						}
					}
				}
				JOINT LeftCollar
				{
					OFFSET 0 0 0
					CHANNELS 3 Zrotation Yrotation Xrotation
					JOINT LeftShoulder
					{
						OFFSET 3.42372 1.09575 -0.28209
CHANNELS 3 Zrotation Xrotation Yrotation
						JOINT LeftElbow
						{
OFFSET 0 -4.956810 0.000000
CHANNELS 3 Zrotation Xrotation Yrotation
							JOINT LeftWrist
							{
OFFSET 0 -3.409150 0.000000
CHANNELS 3 Zrotation Xrotation Yrotation
								JOINT lhand
								{
									OFFSET 0 0 0
CHANNELS 3 Zrotation Xrotation Yrotation
									JOINT LFingers
									{
OFFSET 0 -0.616400 0.000000
CHANNELS 3 Zrotation Xrotation Yrotation
										End Site
										{
OFFSET 0 -0.496960 0.000000
										}
									}
								}
								JOINT LThumb
								{
OFFSET 0 0.000000 0.000000
CHANNELS 3 Zrotation Xrotation Yrotation
									End Site
									{
OFFSET 0 -0.504550 0.504550
									}
								}
							}
						}
					}
				}
				JOINT RightCollar
				{
					OFFSET 0 0 0
					CHANNELS 3 Zrotation Yrotation Xrotation
					JOINT RightShoulder
					{
						OFFSET -3.24731 1.15872 -0.32221
CHANNELS 3 Zrotation Xrotation Yrotation
						JOINT RightElbow
						{
OFFSET 0 -5.352000 0.000000
CHANNELS 3 Zrotation Xrotation Yrotation
							JOINT RightWrist
							{
OFFSET 0 -3.437210 -0.000000
CHANNELS 3 Zrotation Xrotation Yrotation
								JOINT rhand
								{
									OFFSET 0 0 0
CHANNELS 3 Zrotation Xrotation Yrotation
									JOINT RFingers
									{
OFFSET 0 -0.720090 0.000000
CHANNELS 3 Zrotation Xrotation Yrotation
										End Site
										{
OFFSET 0 -0.580560 0.000000
										}
									}
								}
								JOINT RThumb
								{
OFFSET 0 0.000000 0.000000
CHANNELS 3 Zrotation Xrotation Yrotation
									End Site
									{
OFFSET 0 -0.589420 0.589420
									}
								}
							}
						}
					}
				}
			}
		}
	}
}
MOTION
Frames: 6
Frame Time: 0.008333333333333333
-2.278800 16.938900 -22.429700 -4.351100 10.171500 1.010500 0.000000 0.000000 0.000000 -14.580600 -9.229400 -13.069400 4.094200 12.284800 36.746900 0.031200 -20.494500 -14.679400 0.150400 2.499400 6.888100 0.000000 0.000000 0.000000 28.057300 -2.932600 -13.283700 -3.957100 -12.103000 36.097500 -1.953700 -1.948800 -27.178400 -0.113500 -2.171900 5.980900 5.376100 1.278000 1.713300 2.714600 1.931500 -1.601900 -0.288700 0.893500 -2.531200 -2.659800 3.767500 -17.631300 -5.440200 8.275200 29.398500 -0.292000 2.664400 12.940800 -0.000000 -0.000000 0.000000 -2.030200 5.912600 -23.635500 14.335000 -23.211600 2.958900 16.395600 6.290000 -23.728200 0.000000 0.000000 0.000000 -7.125000 0.000000 0.000000 -13.527200 54.085800 3.063800 -0.000000 -0.000000 0.000000 -0.867500 4.945200 12.180400 -13.085300 -21.412000 -2.484300 -21.693100 -11.525400 -9.639800 0.000000 0.000000 0.000000 7.125000 0.000000 -0.000000 3.763300 19.632100 2.285000
-2.294397 16.940729 -22.432866 -4.991484 10.063798 1.049896 0.000000 0.000000 0.000000 -13.657749 -8.717876 -13.786394 4.205406 12.428808 37.266261 -0.014540 -21.284656 -14.877081 0.132410 2.344424 6.458481 0.000000 0.000000 0.000000 28.853112 -2.661969 -13.120545 -3.854733 -11.964600 35.606833 -1.902141 -2.166672 -26.916798 -0.110127 -2.137597 5.886183 6.125034 1.251785 1.646000 2.860019 1.903093 -1.393573 -0.549294 0.876765 -2.262487 -3.732523 3.303477 -18.015158 -4.327598 7.606014 29.541320 0.212261 2.382697 12.961590 0.000000 0.000000 0.000000 -2.382565 5.583894 -22.716661 14.447646 -23.371063 3.003385 15.751173 6.692217 -26.106665 0.000000 0.000000 0.000000 -7.125000 0.000000 0.000000 -15.398216 56.292859 4.340982 0.000000 0.000000 0.000000 -1.060016 4.251470 13.298637 -12.953741 -21.219240 -2.436570 -22.999645 -13.207611 -12.836757 0.000000 0.000000 0.000000 7.125000 0.000000 0.000000 2.970639 16.082029 2.023056
-2.294863 16.934675 -22.426018 -5.071353 9.890228 1.006794 0.000000 0.000000 0.000000 -13.636601 -8.950425 -13.512155 4.195698 12.416431 37.221458 -0.032817 -21.021944 -14.545388 0.334097 3.649387 10.099094 0.000000 0.000000 0.000000 28.860941 -3.272268 -13.272237 -3.863318 -11.976291 35.648087 -1.929954 -1.439471 -26.818170 -0.106058 -2.099683 5.781200 6.394523 1.366601 1.686292 2.806249 2.077931 -1.589153 -0.762696 0.950455 -2.468040 -4.070107 2.479538 -17.198727 -3.786589 6.352452 30.363601 0.261821 1.852163 13.085820 0.000000 0.000000 0.000000 -2.403015 6.172749 -22.761305 14.319007 -23.188874 2.952586 16.878533 6.553786 -24.245818 0.000000 0.000000 0.000000 -7.125000 0.000000 0.000000 -13.279555 54.693443 3.193827 0.000000 0.000000 0.000000 -1.029410 4.816132 12.915153 -13.617561 -22.185318 -2.682028 -20.912872 -11.979048 -9.223204 0.000000 0.000000 0.000000 7.125000 0.000000 0.000000 4.317075 20.134773 2.578023
-2.315382 16.939744 -22.416317 -4.568394 9.447037 1.170487 0.000000 0.000000 0.000000 -14.124331 -8.621364 -13.499114 4.164037 12.375548 37.073872 0.154066 -21.074700 -16.025403 0.244989 3.185173 8.794573 0.000000 0.000000 0.000000 28.328632 -3.144902 -13.343065 -3.883228 -12.003402 35.743953 -1.945973 -1.028092 -26.773052 -0.127254 -2.299434 6.333820 5.888911 1.521828 1.405215 2.506958 2.237805 -1.572843 -0.787193 1.040559 -2.287929 -4.480057 1.531524 -16.582219 -2.834334 4.789990 31.185508 0.444026 1.228154 13.249305 0.000000 0.000000 0.000000 -2.195462 6.623903 -22.655903 14.249270 -23.089885 2.925107 14.492841 5.929150 -23.762230 0.000000 0.000000 0.000000 -7.125000 0.000000 0.000000 -15.442922 53.765847 3.390806 0.000000 0.000000 0.000000 -0.828991 4.551567 12.976148 -13.880474 -22.563581 -2.782053 -19.911294 -13.023219 -12.367512 0.000000 0.000000 0.000000 7.125000 0.000000 0.000000 5.085647 16.885285 3.402757
-2.337965 16.937536 -22.417134 -4.486532 9.494080 1.091148 0.000000 0.000000 0.000000 -14.066643 -8.190163 -13.531391 4.138750 12.342801 36.955595 -0.042735 -21.120169 -14.536695 0.132291 2.342988 6.454699 0.000000 0.000000 0.000000 28.294886 -3.585512 -13.511719 -3.928625 -12.064845 35.961642 -1.968372 -0.653942 -26.791298 -0.135137 -2.369049 6.526778 5.812926 1.125950 1.682786 2.595520 1.715095 -1.255881 -0.641925 0.790041 -2.150345 -5.496902 0.812842 -17.423814 -1.901805 3.861299 32.158721 0.848202 0.776714 13.813585 0.000000 0.000000 0.000000 -2.680603 5.959770 -21.594177 13.983272 -22.710757 2.821642 20.287522 8.713850 -22.750186 0.000000 0.000000 0.000000 -7.125000 0.000000 0.000000 -9.173987 53.834266 2.008214 0.000000 0.000000 0.000000 -1.234524 3.527732 14.391750 -14.028487 -22.775411 -2.839110 -22.129580 -13.855305 -12.196630 0.000000 0.000000 0.000000 7.125000 0.000000 0.000000 3.537773 16.861634 2.364003
-2.377093 16.937035 -22.418011 -4.034192 9.152317 1.188335 0.000000 0.000000 0.000000 -14.378903 -7.651246 -13.657927 4.113718 12.310178 36.838331 -0.066130 -21.349190 -14.519164 0.112422 2.157434 5.941113 0.000000 0.000000 0.000000 27.885873 -3.592993 -13.704799 -3.972354 -12.123473 36.170277 -2.001715 -0.274887 -26.886488 -0.133571 -2.353893 6.484871 5.269473 1.118986 1.890165 2.361647 1.698778 -1.206782 -0.584418 0.786803 -2.223458 -5.687750 0.193493 -16.893103 -0.900325 2.631650 32.618615 1.075500 0.349109 13.891955 0.000000 0.000000 0.000000 -2.336127 6.305911 -21.669598 14.011571 -22.751330 2.832577 18.438705 8.345966 -23.046974 0.000000 0.000000 0.000000 -7.125000 0.000000 0.000000 -11.166932 53.787856 2.437741 0.000000 0.000000 0.000000 -0.913951 3.653282 14.918320 -14.682876 -23.702423 -3.097421 -22.449682 -14.960188 -12.164311 0.000000 0.000000 0.000000 7.125000 0.000000 0.000000 3.313717 16.865307 2.213548
